# xmcd
#
# Track frame offsets:
#	300
#	17139
#	34767
#	49027
#	63352
#	82569
#	95960
#	115242
#	133728
#	146623
#	163127
#	176702
#	191203
#	207019
#	221493
#	235859
#
# Disc length: 3416 seconds
#
# Revision: 1
# Processed by: cddbd v1.5.2PL0 Copyright (c) Steve Scherf et al.
# Submitted via: audiograbber 1.83.01
#
DISCID=e60d5410
DTITLE=Various Artist - sc8959
DYEAR=1900
DGENRE=country
TTITLE0=josh turner - your man
TTITLE1=dierks bentley - settle for a slow down
TTITLE2=jamey johnson - the dollar
TTITLE3=martina mcbride and dolly parton - I still miss someone
TTITLE4=tracy lawrence - if I don't make it back
TTITLE5=joaquin phoenix and reese witherspoon - jackson
TTITLE6=sugarland - just might (make me believe)
TTITLE7=phil vassar - last day of my life
TTITLE8=blake shelton - nobody but me
TTITLE9=big and rich - never mind me [duet]
TTITLE10=joe nichols - size matters (someday)
TTITLE11=toby keith - get drunk and be somebody
TTITLE12=carrie underwood - before he cheats
TTITLE13=martina mcbride and dolly parton - I still miss someone [duet]
TTITLE14=trick pony - ain't wastin' good whiskey on you
TTITLE15=george strait - the seashores of old mexico
EXTD=
EXTT0=
EXTT1=
EXTT2=
EXTT3=
EXTT4=
EXTT5=
EXTT6=
EXTT7=
EXTT8=
EXTT9=
EXTT10=
EXTT11=
EXTT12=
EXTT13=
EXTT14=
EXTT15=
PLAYORDER=
